<?xml version="1.0" standalone="no"?>
<!DOCTYPE svg PUBLIC "-//W3C//DTD SVG 20010904//EN"
 "http://www.w3.org/TR/2001/REC-SVG-20010904/DTD/svg10.dtd">
<svg version="1.0" xmlns="http://www.w3.org/2000/svg"
 width="4025.000000pt" height="4025.000000pt" viewBox="0 0 4025.000000 4025.000000"
 preserveAspectRatio="xMidYMid meet">
<metadata>
Created by potrace 1.14, written by Peter Selinger 2001-2017
</metadata>
<g transform="translate(0.000000,4025.000000) scale(0.100000,-0.100000)"
fill="#000000" stroke="none">
<path d="M19069 25586 c-2 -2 -44 -7 -94 -10 -144 -10 -206 -15 -270 -21 -93
-10 -313 -44 -359 -56 -23 -6 -50 -13 -61 -15 -11 -2 -56 -14 -100 -28 -393
-118 -731 -336 -1002 -645 -199 -227 -343 -531 -394 -832 -31 -182 -31 -442 0
-606 76 -395 254 -701 617 -1058 187 -185 388 -333 659 -485 113 -64 513 -284
600 -330 55 -29 105 -56 110 -61 6 -4 44 -25 85 -47 118 -62 210 -112 270
-146 30 -17 69 -38 85 -46 17 -8 37 -19 45 -26 8 -6 45 -27 82 -47 300 -163
608 -378 805 -561 542 -507 606 -1209 163 -1791 -68 -90 -208 -235 -285 -296
-200 -158 -479 -281 -710 -313 -22 -3 -69 -10 -105 -15 -67 -10 -383 -8 -480
3 -241 27 -540 129 -751 258 -543 331 -928 886 -1013 1463 -32 210 -48 249
-107 260 -44 8 -113 -49 -123 -102 -12 -59 -19 -152 -31 -398 -3 -55 -7 -134
-10 -175 -2 -41 -7 -118 -10 -170 -4 -52 -8 -113 -10 -135 -2 -22 -6 -71 -10
-110 -6 -76 -14 -160 -20 -215 -2 -19 -7 -69 -10 -110 -4 -41 -8 -86 -11 -100
-2 -14 -4 -55 -5 -91 -3 -132 60 -209 246 -302 167 -83 409 -171 640 -233 136
-37 139 -37 220 -54 82 -17 97 -20 165 -31 36 -5 79 -12 95 -15 17 -3 44 -7
60 -9 17 -2 50 -7 75 -10 204 -26 288 -30 600 -30 332 0 426 6 665 41 414 61
694 167 1005 381 52 37 97 69 100 72 3 3 32 28 65 56 249 206 453 490 578 805
67 168 127 387 143 522 4 29 8 56 10 59 17 30 26 444 11 569 -44 385 -213 743
-480 1019 -231 238 -571 476 -1164 814 -122 70 -224 127 -227 127 -3 0 -31 15
-63 34 -55 31 -97 55 -260 142 -38 20 -90 49 -118 64 -27 15 -90 49 -140 75
-49 27 -128 69 -175 95 -47 26 -116 64 -155 85 -38 21 -92 51 -118 67 -26 15
-50 28 -52 28 -16 0 -390 243 -415 270 -3 3 -45 36 -94 74 -262 204 -388 398
-427 661 -11 73 -13 242 -4 285 2 13 7 40 10 60 18 120 78 265 158 385 167
249 445 460 737 558 82 28 248 64 344 75 78 9 412 8 490 -2 544 -66 981 -377
1230 -875 79 -158 194 -479 212 -593 7 -41 20 -56 55 -63 34 -7 63 4 78 27 17
28 18 33 26 193 3 77 8 158 10 180 22 255 23 665 1 795 -3 14 -7 43 -10 65
-14 102 -25 120 -103 173 -190 127 -396 231 -571 286 -111 35 -310 79 -407 90
-82 10 -127 15 -175 20 -107 12 -415 27 -421 22z"/>
<path d="M3929 25546 c-2 -2 -67 -7 -144 -10 -77 -4 -153 -9 -170 -11 -16 -2
-68 -6 -115 -10 -47 -3 -98 -7 -115 -9 -16 -2 -59 -6 -95 -10 -77 -8 -262 -43
-307 -57 -17 -5 -42 -12 -55 -14 -13 -3 -54 -14 -93 -26 -38 -11 -74 -21 -80
-23 -45 -10 -230 -76 -335 -118 -896 -362 -1571 -1011 -2010 -1933 -95 -199
-95 -200 -165 -381 -109 -282 -184 -551 -210 -754 -4 -30 -9 -64 -11 -74 -26
-140 -26 -660 1 -906 2 -25 7 -72 11 -105 9 -91 14 -128 19 -155 2 -14 7 -45
10 -70 3 -25 8 -52 10 -60 2 -8 7 -30 10 -48 35 -205 143 -580 211 -729 13
-28 24 -55 24 -59 0 -3 30 -68 66 -143 328 -674 822 -1163 1514 -1499 232
-112 403 -180 672 -267 194 -62 430 -126 516 -140 44 -6 86 -13 127 -20 17 -3
59 -8 95 -11 36 -3 76 -8 90 -10 144 -24 1181 -23 1445 1 28 2 77 7 110 9 70
6 246 25 273 31 11 2 43 6 73 10 73 9 239 40 369 69 159 36 434 118 490 146
19 10 41 27 47 39 32 53 262 952 334 1306 20 99 21 113 8 140 -13 27 -19 30
-57 28 -60 -3 -84 -25 -137 -128 -136 -262 -307 -497 -510 -701 -206 -207
-417 -352 -665 -457 -250 -106 -574 -202 -780 -232 -14 -2 -42 -6 -62 -9 -255
-39 -554 -41 -818 -6 -216 28 -495 99 -695 176 -175 68 -466 231 -572 320 -12
11 -48 40 -80 66 -57 47 -243 233 -293 293 -28 34 -87 112 -147 195 -101 139
-235 401 -316 615 -40 107 -118 359 -131 425 -3 14 -16 75 -30 135 -14 61 -28
126 -31 145 -3 19 -8 42 -10 50 -2 8 -6 33 -10 55 -3 22 -7 47 -10 55 -2 8 -6
38 -10 65 -7 60 -16 134 -21 157 -1 9 -6 48 -9 85 -4 37 -8 84 -10 103 -24
201 -24 745 -1 960 2 19 7 67 10 105 4 39 8 81 11 95 2 14 7 48 10 75 43 358
144 765 272 1095 60 155 198 431 279 560 383 611 966 1056 1619 1238 123 35
289 68 380 76 33 4 76 8 95 11 42 6 368 6 425 0 249 -26 471 -73 665 -140 98
-34 293 -124 385 -177 338 -196 625 -531 805 -941 55 -125 71 -140 152 -138
35 0 72 3 83 5 11 3 24 5 29 5 9 1 4 179 -19 721 -16 397 -41 451 -250 550
-224 105 -500 201 -741 255 -59 13 -215 44 -249 49 -22 4 -51 8 -65 11 -41 6
-180 24 -245 30 -33 3 -80 8 -105 11 -48 6 -755 15 -761 10z"/>
<path d="M11577 25433 c-1 0 -96 -4 -212 -8 -243 -8 -277 -10 -365 -19 -82 -9
-265 -34 -305 -41 -247 -46 -434 -99 -710 -203 -38 -14 -74 -27 -80 -28 -5 -1
-46 -16 -90 -34 -553 -222 -795 -380 -1200 -785 -382 -382 -671 -813 -843
-1260 -55 -141 -64 -165 -68 -180 -1 -5 -16 -55 -33 -110 -17 -55 -46 -172
-65 -260 -38 -176 -39 -183 -61 -355 -27 -213 -27 -778 0 -930 3 -14 7 -47 10
-75 3 -27 7 -61 10 -75 2 -14 6 -41 9 -61 24 -164 108 -485 177 -667 94 -251
225 -507 372 -727 55 -82 228 -314 259 -347 7 -7 42 -47 78 -88 114 -132 332
-344 457 -445 7 -5 18 -15 25 -20 7 -6 40 -31 73 -55 33 -25 62 -47 65 -50 8
-10 201 -135 265 -173 417 -246 1048 -436 1670 -503 33 -3 68 -8 78 -10 101
-19 484 -25 657 -10 58 5 121 10 140 11 153 12 412 42 495 59 11 2 40 7 65 11
82 13 95 16 158 30 34 8 76 17 92 20 51 9 331 92 431 128 408 146 734 333
1120 643 602 482 941 942 1156 1568 34 101 88 293 98 355 3 19 8 37 10 41 2 3
7 29 11 56 3 27 7 51 9 54 2 3 6 29 10 59 4 30 8 62 10 72 2 10 7 49 10 86 4
37 9 76 11 86 9 50 19 348 18 562 0 220 -4 301 -20 470 -8 92 -42 296 -65 398
-11 51 -22 103 -25 117 -8 39 -111 343 -133 392 -85 189 -111 244 -154 328
-134 257 -342 562 -507 740 -388 421 -775 695 -1285 908 -112 47 -362 137
-409 147 -12 2 -61 16 -111 30 -81 22 -273 65 -365 80 -19 3 -42 8 -50 10 -8
2 -42 6 -74 10 -32 3 -62 7 -65 9 -3 2 -37 7 -76 10 -38 4 -83 9 -100 11 -84
11 -570 27 -578 18z m338 -206 c17 -3 57 -8 90 -13 33 -4 62 -8 65 -9 3 0 27
-4 53 -9 329 -52 681 -189 998 -386 248 -155 549 -418 714 -625 21 -28 42 -52
46 -55 25 -18 260 -392 265 -420 0 -3 18 -41 40 -85 22 -44 55 -118 73 -165
18 -47 37 -94 41 -105 36 -85 118 -390 146 -545 3 -14 13 -70 24 -125 17 -89
23 -130 35 -215 4 -31 16 -110 20 -130 2 -8 6 -47 10 -87 4 -40 8 -85 10 -100
23 -180 23 -732 0 -945 -2 -18 -6 -58 -9 -88 -13 -123 -17 -166 -21 -190 -2
-14 -7 -45 -10 -70 -8 -60 -14 -94 -26 -165 -13 -72 -18 -98 -23 -127 -2 -13
-13 -63 -25 -111 -12 -49 -23 -101 -26 -116 -8 -45 -91 -328 -128 -436 -140
-407 -350 -751 -618 -1012 -52 -50 -110 -104 -129 -119 -19 -16 -37 -31 -40
-34 -20 -22 -179 -133 -267 -186 -187 -114 -412 -213 -638 -282 -159 -49 -447
-112 -580 -128 -22 -2 -53 -7 -70 -9 -177 -26 -651 -27 -790 -1 -11 2 -41 6
-66 10 -116 17 -168 28 -304 66 -353 100 -643 253 -943 500 -95 77 -304 285
-388 385 -268 318 -487 716 -633 1151 -42 127 -113 375 -126 447 -3 11 -16 73
-30 136 -13 64 -32 157 -40 206 -8 50 -17 101 -20 114 -2 13 -7 49 -10 80 -3
31 -8 65 -10 77 -26 121 -25 612 0 804 3 19 7 53 10 75 12 98 17 141 21 160 2
10 6 37 10 60 4 33 56 282 68 335 38 157 117 417 136 452 6 10 10 22 10 28 0
13 108 283 145 365 121 263 249 483 382 657 101 133 311 344 438 438 55 41
102 77 105 80 3 3 14 10 25 17 11 7 49 30 85 51 162 98 312 168 508 236 101
35 349 99 427 111 22 3 75 12 118 20 43 8 81 14 85 14 4 -1 9 0 12 1 6 2 36 5
155 15 50 4 92 9 94 11 6 5 469 -3 506 -9z"/>
<path d="M36217 25433 c-1 0 -92 -4 -202 -8 -110 -4 -222 -8 -250 -10 -96 -7
-190 -16 -215 -20 -14 -2 -50 -7 -80 -10 -262 -30 -672 -149 -1095 -320 -129
-52 -367 -166 -441 -211 -18 -10 -57 -34 -88 -53 -73 -42 -201 -137 -291 -214
-67 -58 -237 -210 -259 -233 -6 -6 -47 -49 -92 -95 -540 -559 -869 -1183 -993
-1883 -11 -61 -23 -138 -26 -171 -4 -33 -8 -71 -10 -85 -21 -134 -21 -606 0
-732 2 -13 6 -52 10 -88 3 -36 7 -72 10 -80 2 -8 6 -37 10 -65 3 -27 10 -72
15 -100 5 -27 12 -61 14 -75 97 -531 304 -1055 579 -1465 176 -261 407 -518
637 -705 30 -25 57 -47 60 -50 3 -3 39 -30 80 -60 281 -208 571 -364 905 -490
77 -29 149 -56 160 -61 133 -55 593 -167 795 -194 25 -3 52 -8 60 -10 13 -3
59 -8 200 -21 122 -11 280 -18 415 -18 151 0 433 11 470 18 11 2 58 7 105 11
47 4 87 8 90 10 3 2 34 6 70 10 36 4 74 9 85 11 11 1 40 6 65 10 44 6 306 60
345 70 11 3 29 7 40 9 11 3 61 16 110 30 50 14 97 28 105 30 28 7 222 76 298
106 252 100 511 240 756 409 223 154 565 457 757 671 271 303 492 663 614
1004 26 72 48 135 49 140 1 6 10 37 20 70 10 33 20 71 23 85 2 14 9 43 15 65
5 22 12 49 14 60 2 11 6 31 9 45 3 14 7 36 10 50 3 14 7 36 10 50 2 14 7 43 9
65 3 22 10 76 15 120 29 234 34 336 35 715 1 319 -2 386 -25 560 -27 203 -108
537 -158 655 -5 11 -28 70 -52 130 -94 241 -273 568 -429 785 -490 684 -1169
1147 -2023 1380 -43 12 -86 23 -95 25 -9 2 -57 13 -107 24 -94 21 -301 57
-370 65 -22 3 -67 8 -100 12 -33 3 -68 8 -77 10 -51 9 -583 25 -591 17z m258
-198 c65 -6 88 -8 173 -20 88 -13 112 -17 262 -50 163 -35 445 -137 630 -229
712 -354 1184 -900 1435 -1662 56 -170 144 -533 171 -702 3 -19 7 -44 10 -55
2 -12 6 -39 9 -62 10 -70 13 -89 20 -135 29 -181 38 -548 22 -893 -5 -92 -10
-184 -12 -205 -2 -20 -6 -68 -10 -107 -3 -38 -8 -81 -10 -95 -2 -14 -7 -52
-10 -85 -5 -53 -29 -216 -40 -270 -6 -30 -34 -177 -39 -200 -43 -213 -148
-558 -231 -757 -230 -550 -609 -968 -1117 -1232 -212 -110 -543 -231 -717
-262 -14 -3 -44 -10 -66 -15 -51 -12 -75 -17 -150 -30 -97 -16 -101 -17 -156
-24 -30 -3 -67 -8 -84 -10 -186 -24 -628 -24 -775 0 -19 4 -75 13 -125 21
-411 68 -838 266 -1180 549 -473 390 -821 917 -1035 1564 -44 133 -124 429
-136 501 -2 14 -9 45 -14 70 -23 100 -66 354 -80 470 -9 76 -23 306 -23 370 0
50 14 331 18 352 2 13 7 55 10 93 69 702 326 1443 694 2000 35 54 30 47 120
160 251 316 555 543 949 709 53 23 242 91 282 102 89 24 282 74 305 78 86 16
209 37 247 42 24 3 54 7 68 10 14 2 72 7 130 10 58 4 106 7 107 8 5 5 280 -2
348 -9z"/>
<path d="M22187 25410 c-92 -9 -119 -34 -120 -112 -1 -66 24 -114 68 -127 27
-9 157 -29 230 -36 37 -3 131 -15 165 -20 14 -2 50 -6 80 -10 30 -3 80 -10
110 -15 30 -5 80 -12 110 -15 30 -3 62 -8 70 -10 8 -2 38 -7 65 -10 91 -12
163 -23 235 -35 30 -6 75 -12 100 -15 25 -4 58 -8 75 -10 44 -6 53 -26 50
-108 -4 -105 -15 -378 -20 -482 -13 -261 -16 -329 -20 -420 -3 -55 -8 -149
-10 -210 -3 -60 -7 -150 -10 -200 -2 -49 -7 -142 -10 -205 -5 -117 -11 -234
-20 -395 -3 -49 -7 -142 -10 -205 -3 -63 -7 -149 -10 -190 -3 -41 -7 -124 -10
-185 -9 -174 -14 -274 -19 -360 -11 -175 -17 -294 -21 -375 -4 -89 -13 -255
-20 -375 -4 -68 -11 -213 -20 -385 -2 -47 -7 -143 -10 -215 -4 -71 -8 -164
-10 -205 -9 -206 -16 -353 -20 -430 -3 -47 -7 -139 -10 -205 -6 -124 -12 -252
-20 -390 -2 -44 -7 -129 -10 -190 -10 -181 -15 -258 -20 -300 -2 -22 -7 -62
-10 -90 -3 -27 -12 -84 -20 -125 -8 -41 -22 -118 -30 -170 -30 -175 -77 -218
-260 -235 -132 -13 -163 -17 -245 -32 -47 -8 -94 -17 -105 -19 -11 -2 -45 -8
-75 -14 -185 -34 -390 -81 -441 -101 -35 -14 -51 -47 -44 -89 10 -59 16 -70
38 -71 48 -2 585 3 622 6 325 24 973 25 1445 0 47 -2 166 -7 265 -10 99 -4
212 -8 250 -10 402 -18 410 -18 435 3 21 17 24 27 23 80 -3 105 -18 118 -149
127 -49 3 -105 8 -124 10 -34 4 -149 11 -315 20 -382 20 -487 36 -593 87 -110
54 -186 164 -197 287 -3 25 -7 71 -10 101 -2 30 -7 82 -10 115 -3 33 -8 89
-10 125 -2 36 -6 90 -9 120 -3 30 -8 93 -11 140 -3 47 -8 110 -10 140 -29 387
-22 1291 20 2750 19 621 24 788 30 870 2 41 7 134 11 205 12 263 13 294 29
555 2 36 7 117 10 180 9 179 22 350 30 390 4 20 18 141 18 158 1 28 32 4 57
-43 14 -28 66 -126 115 -220 120 -231 310 -608 367 -730 26 -55 75 -158 108
-230 59 -124 86 -182 165 -350 83 -178 110 -237 165 -355 31 -69 70 -152 85
-185 15 -33 41 -89 58 -125 16 -36 37 -83 47 -105 10 -22 30 -65 43 -95 14
-30 64 -143 112 -250 48 -107 125 -283 172 -390 88 -202 133 -307 164 -375 9
-22 48 -112 84 -200 37 -88 91 -216 120 -285 29 -69 74 -177 99 -240 26 -63
52 -126 58 -140 18 -41 26 -61 58 -145 17 -44 37 -93 44 -110 8 -16 69 -172
135 -345 67 -173 135 -349 151 -391 17 -42 30 -79 30 -83 0 -5 6 -22 14 -39 8
-18 56 -147 106 -287 51 -140 102 -284 115 -320 13 -36 40 -112 60 -170 75
-213 91 -245 135 -265 32 -14 45 -16 65 -7 30 14 40 34 100 197 26 72 53 144
60 160 7 17 25 62 40 100 15 39 33 84 40 100 7 17 54 136 105 265 51 129 98
249 105 265 7 17 25 62 40 100 14 39 30 79 35 90 5 11 59 146 121 300 61 154
117 294 124 310 7 17 24 59 38 95 76 191 556 1353 642 1555 45 107 69 163 110
265 26 63 55 133 65 155 10 22 34 78 53 125 193 464 241 579 252 605 19 44
223 529 245 583 10 26 26 65 36 87 10 22 18 42 19 45 1 3 6 16 12 30 6 14 86
204 177 422 199 475 225 529 227 458 0 -19 2 -51 4 -70 2 -19 6 -93 9 -165 3
-71 9 -197 13 -280 16 -310 1 -3327 -22 -4335 -7 -330 -17 -755 -19 -835 -2
-74 -12 -110 -40 -142 -21 -24 -362 -152 -486 -182 -69 -16 -138 -32 -155 -34
-25 -4 -113 -20 -229 -43 -130 -25 -181 -65 -172 -136 8 -58 16 -67 74 -84 60
-18 76 -19 167 -10 396 36 1726 36 2515 1 183 -9 587 -12 593 -5 11 11 16 114
6 131 -5 10 -22 25 -37 33 -22 11 -174 44 -322 70 -61 10 -296 60 -415 88 -71
17 -146 34 -165 38 -60 13 -173 51 -212 71 -70 36 -123 105 -133 174 -2 11 -6
41 -9 66 -4 25 -9 376 -11 780 -11 1737 -18 2419 -30 2934 -18 794 -24 1731
-12 1975 8 155 11 191 27 330 22 186 77 265 213 305 83 24 84 24 322 50 33 3
71 8 85 10 14 2 57 6 95 10 39 3 77 8 85 10 8 2 38 6 65 9 175 20 357 60 402
88 47 28 58 87 32 165 l-11 33 -786 1 c-433 0 -848 3 -922 6 -74 3 -197 6
-272 6 -123 1 -141 -1 -165 -19 -41 -30 -67 -90 -188 -434 -20 -58 -41 -113
-46 -122 -5 -10 -9 -23 -9 -29 0 -6 -6 -25 -14 -42 -8 -18 -23 -59 -35 -92
-61 -180 -242 -655 -281 -740 -5 -11 -23 -54 -39 -95 -29 -75 -210 -508 -236
-565 -13 -29 -27 -63 -100 -240 -78 -189 -178 -443 -245 -620 -187 -495 -507
-1259 -729 -1737 -17 -38 -44 -97 -61 -132 -99 -217 -402 -832 -424 -861 -16
-21 -19 -16 -114 195 -11 25 -73 162 -137 305 -142 313 -328 727 -540 1200
-86 193 -169 377 -185 410 -15 33 -67 148 -115 255 -48 107 -98 220 -112 250
-14 30 -43 96 -65 145 -22 50 -50 113 -63 140 -32 69 -249 551 -295 655 -21
47 -54 121 -75 165 -20 44 -61 134 -90 200 -29 66 -67 152 -85 190 -18 39 -49
108 -70 155 -21 47 -56 125 -79 173 -22 49 -41 91 -41 93 0 3 -15 37 -33 77
-19 40 -41 88 -50 107 -86 195 -112 253 -134 300 -14 30 -42 93 -63 140 -21
47 -53 119 -72 160 -19 41 -57 125 -83 185 -69 156 -104 208 -156 233 -41 19
-58 20 -259 17 -118 -2 -296 -7 -395 -11 -355 -13 -946 -7 -1043 10 -9 2 -48
7 -87 11 -38 4 -79 9 -90 11 -58 8 -158 10 -218 4z"/>
<path d="M18750 16700 l-35 -5 0 -797 c0 -530 3 -799 10 -801 5 -2 34 -3 62
-3 84 2 83 -2 85 259 0 125 3 227 5 227 4 0 124 -101 143 -120 3 -3 46 -41 95
-85 50 -44 122 -110 160 -146 39 -37 82 -77 96 -88 37 -29 123 -49 194 -46
104 3 101 2 69 27 -36 27 -180 152 -215 187 -14 14 -41 39 -60 55 -19 16 -72
63 -119 105 -47 42 -103 92 -124 111 -85 76 -106 99 -106 118 0 12 21 38 52
64 29 23 60 50 68 59 8 9 51 47 95 85 44 37 94 80 110 95 17 14 86 75 155 135
l124 109 -34 6 c-120 19 -233 -15 -305 -90 -22 -23 -76 -72 -120 -109 -44 -37
-85 -71 -91 -77 -58 -53 -181 -155 -186 -155 -3 0 -6 196 -6 435 0 240 -2 438
-5 441 -7 7 -77 10 -117 4z"/>
<path d="M25282 16701 c-28 -19 -30 -64 -30 -797 0 -413 2 -763 5 -777 5 -27
7 -27 84 -27 l79 0 2 246 3 246 100 -87 c155 -135 238 -210 322 -291 99 -96
143 -117 246 -119 44 -2 89 0 100 3 17 4 18 7 5 16 -9 6 -55 48 -104 92 -49
44 -141 127 -204 184 -63 57 -153 138 -200 180 -47 43 -98 89 -115 104 l-30
26 35 32 c54 50 131 118 191 168 29 25 60 52 68 61 9 8 79 70 156 136 184 158
180 153 119 154 -97 3 -159 -2 -188 -17 -27 -12 -112 -84 -384 -322 -93 -81
-107 -91 -119 -84 -7 5 -11 141 -11 435 0 235 -1 429 -3 432 -7 6 -117 12
-127 6z"/>
<path d="M12904 16688 c-9 -14 -13 -1587 -4 -1589 17 -4 97 -5 107 -2 16 6 43
77 43 112 0 15 3 30 6 34 3 3 33 -12 66 -34 96 -62 214 -112 298 -128 75 -13
223 -5 282 16 193 71 351 266 385 478 11 68 6 188 -11 255 -69 267 -287 446
-555 455 -150 5 -253 -30 -401 -137 l-76 -54 1 301 0 300 -67 3 c-46 2 -69 -1
-74 -10z m684 -563 c148 -43 271 -162 323 -312 14 -41 18 -78 16 -152 -2 -90
-5 -104 -39 -172 -45 -91 -91 -146 -160 -192 -90 -59 -154 -77 -261 -74 -86 3
-101 6 -168 40 -103 50 -167 115 -217 214 -124 246 2 550 263 638 80 27 170
31 243 10z"/>
<path d="M21210 15901 c0 -630 3 -800 13 -803 17 -6 126 -2 133 4 3 3 7 97 9
209 5 236 14 467 21 507 27 157 136 267 301 305 187 44 335 -56 357 -240 8
-69 17 -329 19 -580 1 -127 6 -203 12 -204 6 -1 38 -2 73 -3 l62 -2 1 140 c3
379 -1 661 -10 712 -39 211 -214 350 -428 340 -124 -6 -205 -41 -338 -143
l-70 -54 -3 305 -2 306 -75 0 -75 0 0 -799z"/>
<path d="M16967 16658 c-63 -13 -95 -36 -201 -141 -55 -56 -128 -127 -162
-157 -33 -30 -105 -95 -158 -145 -54 -49 -107 -96 -117 -103 -18 -13 -19 -6
-19 267 l0 281 -79 0 -80 0 1 -780 c0 -440 4 -780 9 -781 5 -1 18 -1 29 -1 11
0 44 0 73 1 l52 1 0 345 c0 190 2 345 5 345 9 0 328 -333 454 -474 141 -159
159 -175 204 -197 46 -23 166 -35 204 -20 20 7 14 14 -131 166 -64 68 -262
279 -359 381 -15 17 -83 90 -152 163 -69 73 -126 138 -128 145 -2 10 59 71
262 260 17 15 90 83 161 150 163 154 248 233 288 269 34 30 38 28 -64 31 -30
1 -72 -2 -92 -6z"/>
<path d="M20265 16275 c-239 -44 -396 -173 -484 -400 -35 -90 -45 -283 -20
-375 72 -265 361 -457 659 -437 47 4 94 8 105 11 11 3 37 10 57 15 116 28 247
115 320 212 l27 35 -61 41 -62 41 -46 -43 c-116 -111 -221 -157 -364 -158
-197 -1 -359 96 -440 266 -68 141 -68 258 1 394 61 120 207 226 343 248 151
26 283 -9 404 -105 102 -81 111 -85 144 -64 15 10 37 28 51 40 l24 22 -21 34
c-62 100 -199 186 -347 218 -75 17 -211 19 -290 5z"/>
<path d="M22995 16282 c-203 -23 -379 -149 -465 -334 -107 -228 -64 -524 100
-695 44 -46 98 -93 106 -93 3 0 18 -9 33 -20 15 -10 63 -31 107 -46 270 -91
605 30 718 261 14 30 26 59 26 64 0 6 -25 23 -54 38 l-55 27 -78 -75 c-130
-124 -231 -183 -334 -195 -214 -25 -442 167 -443 376 l-1 65 455 2 c250 1 477
2 504 2 l49 1 -6 93 c-9 147 -68 269 -184 382 -60 59 -163 117 -238 134 -52
11 -188 19 -240 13z m195 -172 c115 -31 214 -111 257 -208 31 -71 30 -92 -4
-93 -36 -1 -744 -1 -761 0 -19 1 -7 53 26 115 87 162 287 239 482 186z"/>
<path d="M24406 16275 c-78 -22 -166 -70 -236 -129 -35 -30 -67 -53 -69 -50
-4 4 -6 24 -10 120 l-1 31 -75 0 -75 1 0 -574 c0 -503 2 -574 15 -575 19 -2
44 -2 98 0 l42 1 1 138 c2 188 13 517 20 572 17 136 114 250 255 299 197 70
369 -16 403 -199 9 -50 16 -255 20 -548 2 -139 6 -255 8 -258 10 -9 114 -14
127 -6 23 16 27 78 25 412 -1 300 -3 350 -20 435 -27 141 -110 246 -241 307
-54 25 -79 31 -151 33 -50 2 -108 -3 -136 -10z"/>
<path d="M26750 16271 c-332 -89 -526 -421 -440 -755 26 -104 73 -188 145
-262 84 -85 198 -151 292 -169 15 -2 39 -7 53 -10 93 -19 262 3 360 48 307
142 433 518 277 832 -79 160 -233 282 -406 321 -64 15 -217 12 -281 -5z m277
-165 c103 -34 214 -130 264 -228 48 -94 61 -218 34 -323 -78 -299 -421 -432
-670 -260 -66 45 -96 77 -139 149 -107 179 -75 401 82 554 117 113 285 156
429 108z"/>
<path d="M14309 16255 c-3 -2 -20 -6 -38 -7 -18 -1 -34 -5 -37 -9 -3 -6 45
-125 91 -225 8 -16 30 -66 48 -110 19 -43 46 -104 60 -134 13 -30 34 -75 45
-100 11 -25 59 -133 108 -240 108 -240 110 -257 44 -395 -23 -49 -50 -110 -60
-135 -10 -25 -26 -63 -36 -85 -10 -22 -18 -42 -19 -45 -1 -3 -9 -21 -18 -40
-8 -19 -12 -39 -8 -43 5 -5 36 -9 70 -10 53 -2 64 1 85 23 13 14 65 120 116
235 116 265 113 259 143 325 14 30 37 83 51 117 14 35 37 86 50 115 13 29 67
152 119 273 53 121 120 276 150 345 41 95 51 127 41 133 -7 4 -37 8 -68 9 -71
3 -93 -17 -139 -126 -182 -429 -318 -729 -328 -719 -4 4 -34 69 -67 143 -33
74 -71 160 -85 190 -14 30 -66 147 -117 260 -51 113 -102 215 -114 227 -19 20
-77 39 -87 28z"/>
<path d="M17382 15891 c1 -396 9 -462 68 -586 51 -106 166 -201 266 -219 16
-3 40 -8 54 -11 51 -12 220 -5 281 10 128 33 224 101 268 190 35 70 39 90 56
285 4 46 13 282 19 537 3 118 1 143 -11 147 -22 9 -143 7 -144 -1 0 -5 -2
-116 -4 -248 -5 -287 -13 -487 -21 -535 -16 -86 -79 -162 -173 -207 -79 -37
-213 -42 -286 -10 -130 57 -192 143 -201 277 -7 103 -16 357 -19 525 -2 99 -3
185 -4 192 -1 7 -25 11 -75 10 l-75 -1 1 -355z"/>
</g>
</svg>
